inDegrees=yes
name=ik_20201104_152403_orientations
DataType=double
version=3
OpenSimVersion=4.1
endheader
time	pelvis_tilt	pelvis_list	pelvis_rotation	pelvis_tx	pelvis_ty	pelvis_tz	hip_flexion_r	hip_adduction_r	hip_rotation_r	knee_angle_r	knee_angle_r_beta	ankle_angle_r	subtalar_angle_r	mtp_angle_r	hip_flexion_l	hip_adduction_l	hip_rotation_l	knee_angle_l	knee_angle_l_beta	ankle_angle_l	subtalar_angle_l	mtp_angle_l	lumbar_extension	lumbar_bending	lumbar_rotation	arm_flex_r	arm_add_r	arm_rot_r	elbow_flex_r	pro_sup_r	wrist_flex_r	wrist_dev_r	arm_flex_l	arm_add_l	arm_rot_l	elbow_flex_l	pro_sup_l	wrist_flex_l	wrist_dev_l
8.983333333333359	66.53986806184587	-22.83377987954814	-14.15802086704636	0	0.9399999999999999	0	31.41841912543257	-9.631528944896864	0	49.29005441443539	0.8602737380190631	-4.931424945124683	0	0	31.70798542176942	-8.394859291440437	-2.36974726817263	71.83861962296321	1.253820442508515	-4.931424945124683	0	0	0	0	0	0	-6.762256974230882	0	58.5586790825969	43.91777065062181	0	-1.196391699373358e-51	0	-6.762256974230882	0	58.5586790825969	43.91777065062181	0	-1.196391699373358e-51
9.000000000000027	66.69941194979953	-22.8407774769605	-13.8503339652071	0	0.9399999999999999	0	31.51170198887763	-9.637384758253482	0	49.3640896614728	0.8615658968423933	-4.932720490500655	0	0	31.30241430601923	-8.339573630047759	-2.442950098361297	69.42878549495489	1.211760902547844	-4.932720490500655	0	0	0	0	0	0	-6.796572641274746	0	58.67233850775492	43.93250873262385	0	-3.615819514632934e-71	0	-6.796572641274746	0	58.67233850775492	43.93250873262385	0	-3.615819514632934e-71
9.016666666666694	66.87046738001236	-22.86263326443883	-13.55505160668052	0	0.9399999999999999	0	31.5979660312446	-9.642760978179357	0	49.43250649050609	0.8627599957727983	-4.93390699911953	0	0	30.94359399377678	-8.293577765863466	-2.518125394667259	67.10272274883516	1.171163449020074	-4.93390699911953	0	0	0	0	0	0	-6.828379525364423	0	58.77743465451569	43.9460649840258	0	0	0	-6.828379525364423	0	58.77743465451569	43.9460649840258	0	0
9.033333333333362	67.01537211084	-22.94755997608923	-13.29556677130256	0	0.9399999999999999	0	31.6820112207451	-9.647961934516143	0	49.49913457625025	0.863922875243335	-4.935052078064984	0	0	30.58477877091467	-8.240182261612757	-2.58866353164453	64.78824713943118	1.130768229178872	-4.935052078064984	0	0	0	0	0	0	-6.85943945764804	0	58.87981664757818	43.95920314371004	0	0	0	-6.85943945764804	0	58.87981664757818	43.95920314371004	0	0
9.050000000000029	67.14745967387378	-23.03528963551291	-13.11342687930455	0	0.9399999999999999	0	31.76153079609831	-9.652869596748657	0	49.56203001621988	0.8650206077552954	-4.936131490160609	0	0	30.23361431118717	-8.179853667879465	-2.655767335626454	62.49402964768797	1.090726580191107	-4.936131490160609	0	0	0	0	0	0	-6.888846419833344	0	58.9766832573906	43.97160954732188	0	0	0	-6.888846419833344	0	58.9766832573906	43.97160954732188	0	0
9.066666666666697	67.25620328785695	-23.11704537182531	-12.97522322241561	0	0.9399999999999999	0	31.83761380585069	-9.657518043426547	0	49.62229014256261	0.866072345367644	-4.937150539529007	0	0	29.87915115734665	-8.112718866509164	-2.716855584508411	60.2045502097377	1.050767625842166	-4.937150539529007	0	0	0	0	0	0	-6.917081394078413	0	59.06934830583201	43.9833903470856	0	0	0	-6.917081394078413	0	59.06934830583201	43.9833903470856	0	0
9.083333333333364	67.34716972851226	-23.20886985290974	-12.86480847517498	0	0.9399999999999999	0	31.91013877421468	-9.661922776911469	0	49.67970061387349	0.8670743471171406	-4.938114198368367	0	0	29.53406135137401	-8.040001024148777	-2.771837269051961	57.94017370443181	1.011246800319775	-4.938114198368367	0	0	0	0	0	0	-6.944047143702607	0	59.15767231265998	43.99457063129395	0	0	0	-6.944047143702607	0	59.15767231265998	43.99457063129395	0	0
9.100000000000032	67.44507903525746	-23.31604302032997	-12.83167915235831	0	0.9399999999999999	0	31.97321150925935	-9.665743690145714	0	49.72954411539519	0.867944280329417	-4.938949380524264	0	0	29.23354665563319	-7.963638631917501	-2.818867547277522	55.77709451936499	0.9734939465590031	-4.938949380524264	0	0	0	0	0	0	-6.967515582959012	0	59.23448281257879	44.00427551520621	0	0	0	-6.967515582959012	0	59.23448281257879	44.00427551520621	0	0
